<?xml version="1.0" encoding="UTF-8" standalone="no"?>
<!-- Generator: Adobe Illustrator 26.0.3, SVG Export Plug-In . SVG Version: 6.00 Build 0)  -->

<svg version="1.1" id="Слой_1" x="0px" y="0px" viewBox="0 0 511.99998 512" xml:space="preserve"
   sodipodi:docname="favicon.svg" width="512" height="512" inkscape:version="1.1.2 (b8e25be833, 2022-02-05)"
   xmlns:inkscape="http://www.inkscape.org/namespaces/inkscape"
   xmlns:sodipodi="http://sodipodi.sourceforge.net/DTD/sodipodi-0.dtd" xmlns="http://www.w3.org/2000/svg"
   xmlns:svg="http://www.w3.org/2000/svg">
   <defs id="defs99" />
   <sodipodi:namedview id="namedview97" pagecolor="#ffffff" bordercolor="#666666" borderopacity="1.0"
      inkscape:pageshadow="2" inkscape:pageopacity="0.0" inkscape:pagecheckerboard="0" showgrid="false"
      inkscape:zoom="0.34626866" inkscape:cx="1417.9741" inkscape:cy="919.80603" inkscape:window-width="1920"
      inkscape:window-height="1009" inkscape:window-x="-8" inkscape:window-y="-8" inkscape:window-maximized="1"
      inkscape:current-layer="g94" />
   <style type="text/css" id="style2">
      .st0 {
         fill: #293A68;
      }

      .st1 {
         fill: #94CEF2;
      }

      .st2 {
         fill: #316C59;
      }

      .st3 {
         fill: #ACC982;
      }

      .st4 {
         fill: #FFFFFF;
      }

      .st5 {
         fill: #93B26A;
      }
   </style>
   <g id="g94">


      <g id="g84">











      </g>
      <path class="st1"
         d="M 477.87441,164.29964 381.03648,22.20222 c -6.23997,-9.162478 -19.62825,-8.530584 -25.07834,1.184803 L 257.61946,197.31615 c -6.31895,11.21614 2.76454,24.92037 15.16548,22.9062 l 195.1766,-31.83172 c 10.90021,-1.8167 16.2318,-14.77054 9.91287,-24.09099 z"
         id="path86" style="stroke-width:0.394933" />
      <path class="st2"
         d="m 52.964434,423.92954 153.037096,72.86542 c 9.87336,4.69969 21.16849,-2.72508 21.20798,-13.94119 l 0.86886,-200.98215 c 0.0395,-12.95385 -14.4941,-20.10217 -24.24898,-11.96652 L 49.923443,397.98235 c -8.609576,7.18779 -6.950849,21.16848 3.040991,25.94719 z"
         id="path88" style="stroke-width:0.394933" />
      <path class="st3"
         d="M 47.909275,112.32626 15.2482,243.40501 c -3.238465,12.99333 7.661723,24.99934 20.457602,22.59024 L 184.83304,237.52048 c 14.77055,-2.80403 19.82571,-22.03734 8.41211,-32.06868 L 76.778987,102.84783 C 66.747647,94.040796 51.18723,99.135445 47.909275,112.32626 Z"
         id="path90" style="stroke-width:0.394933" />
      <path class="st2"
         d="M 228.43381,172.27731 265.91309,49.650165 C 268.48014,41.31705 261.48982,33.181397 253.15671,34.840119 L 140.52139,56.83797 c -8.25412,1.619237 -11.9665,11.650568 -6.87185,18.482931 l 75.11653,100.629309 c 5.56857,7.38527 16.9032,5.29211 19.66774,-3.6729 z"
         id="path92" style="stroke-width:0.394933" />
   </g>
</svg>